<?xml version="1.0" standalone="no"?>
<!DOCTYPE svg PUBLIC "-//W3C//DTD SVG 20010904//EN"
 "http://www.w3.org/TR/2001/REC-SVG-20010904/DTD/svg10.dtd">
<svg version="1.0" xmlns="http://www.w3.org/2000/svg"
 width="197.000000pt" height="256.000000pt" viewBox="0 0 197.000000 256.000000"
 preserveAspectRatio="xMidYMid meet">

<g transform="translate(0.000000,256.000000) scale(0.100000,-0.100000)"
fill="#000000" stroke="none">
<path d="M975 2513 c-10 -74 -10 -74 -57 -71 -40 3 -43 5 -59 48 l-17 45 -59
-3 c-82 -3 -83 -4 -83 -65 0 -29 -5 -58 -12 -65 -25 -25 -56 -13 -89 32 l-32
45 -51 -26 c-28 -14 -53 -27 -55 -29 -1 -1 3 -35 10 -75 12 -67 11 -73 -6 -85
-26 -19 -30 -18 -74 21 -21 19 -43 35 -48 35 -5 0 -26 -21 -47 -46 l-39 -46
22 -52 c25 -61 26 -79 5 -96 -12 -11 -25 -10 -70 4 -39 12 -59 14 -68 7 -14
-12 -62 -109 -55 -114 93 -69 99 -78 74 -111 -13 -18 -19 -18 -66 -8 -29 7
-54 10 -57 8 -2 -3 -10 -32 -17 -66 -14 -68 -15 -68 62 -84 40 -9 46 -17 37
-52 -5 -20 -20 -32 -60 -50 l-54 -24 0 -53 0 -54 58 -9 c56 -9 57 -10 60 -45
3 -33 1 -36 -48 -59 -54 -25 -57 -33 -36 -85 l15 -35 70 0 c59 0 72 -3 81 -19
15 -29 13 -34 -31 -85 -45 -51 -45 -46 10 -116 l20 -25 56 28 56 27 24 -26 24
-26 -34 -51 c-19 -29 -35 -54 -35 -58 0 -3 21 -20 46 -39 l46 -32 44 43 45 44
37 -22 c39 -22 42 -35 27 -99 -7 -29 -4 -33 40 -58 26 -14 49 -26 51 -26 2 0
17 21 35 48 18 26 33 49 35 51 2 2 94 -29 94 -33 0 0 -7 -25 -14 -53 -8 -29
-11 -55 -7 -58 5 -2 27 -7 50 -11 54 -9 58 -18 21 -44 -28 -20 -36 -21 -75
-11 -61 15 -60 16 -80 -28 -17 -39 -17 -39 11 -90 16 -27 25 -53 22 -57 -4 -4
-45 -13 -90 -20 -46 -7 -123 -25 -173 -40 -139 -41 -127 -42 -150 16 -23 60
-43 74 -93 65 -82 -15 -162 -81 -162 -132 0 -31 102 -206 132 -227 44 -31 78
-29 213 14 134 43 323 90 363 90 l23 0 -23 -40 -23 -41 35 -29 c19 -16 40 -30
45 -30 6 0 24 16 40 36 27 32 33 34 57 25 22 -8 28 -18 33 -55 8 -50 16 -53
83 -40 28 6 31 10 34 47 3 35 7 43 30 51 22 8 33 5 60 -16 l33 -25 33 26 c21
19 32 36 32 54 0 25 3 27 28 21 27 -6 232 -59 367 -95 78 -21 116 -15 153 24
38 41 122 188 122 214 0 41 -76 108 -138 123 -28 6 -59 9 -70 6 -11 -4 -30
-31 -44 -65 l-26 -60 -103 34 c-57 18 -135 39 -174 45 -107 17 -115 19 -115
34 0 8 16 28 36 45 l37 30 -29 45 c-31 50 -35 51 -82 35 -27 -9 -37 -7 -76 16
-66 39 -61 55 18 55 l65 0 6 48 c11 76 14 81 53 88 33 6 39 4 68 -30 l33 -38
50 29 c55 30 57 37 36 97 -16 45 -13 54 21 79 24 18 25 18 71 -22 l47 -40 25
20 c70 52 67 47 49 77 -56 94 -54 86 -28 112 22 22 25 22 76 10 30 -7 56 -11
58 -9 1 2 20 29 40 59 l37 55 -51 46 c-48 44 -50 47 -39 77 13 37 11 37 75 17
27 -8 54 -15 61 -15 6 0 20 27 32 60 l20 61 -65 32 c-55 27 -64 35 -65 59 -1
15 -2 33 -3 40 -1 7 24 18 55 26 l55 13 -9 60 -10 59 -46 14 c-46 13 -71 40
-71 78 0 9 20 28 44 42 25 15 48 30 51 35 6 10 -24 82 -39 93 -5 3 -36 10 -68
13 -32 4 -65 14 -73 22 -13 13 -11 19 20 56 19 22 35 44 35 49 0 11 -60 118
-67 118 -2 0 -30 -14 -62 -32 l-58 -32 -26 29 -25 29 21 54 21 54 -35 29 c-62
53 -65 53 -100 9 -35 -43 -53 -48 -86 -25 -18 13 -20 22 -16 78 l5 64 -63 13
c-37 8 -64 10 -66 4 -2 -5 -14 -27 -26 -49 -16 -29 -29 -40 -46 -40 -26 0 -34
15 -46 88 l-6 37 -59 0 -59 0 -6 -47z m120 -23 c8 -57 25 -80 60 -80 18 0 30
13 53 54 l31 53 48 -12 48 -12 -3 -65 -4 -64 42 -19 42 -19 34 37 c19 20 40
37 47 37 6 0 25 -12 41 -26 l29 -26 -18 -53 -18 -53 29 -36 c16 -20 33 -36 38
-36 5 0 31 14 58 30 26 17 50 30 52 30 2 0 18 -22 34 -49 l30 -49 -29 -28
c-60 -57 -47 -98 33 -109 76 -11 93 -19 108 -54 7 -18 11 -33 9 -35 -2 -1 -26
-17 -52 -35 -41 -28 -48 -37 -43 -57 15 -59 25 -72 59 -78 48 -9 64 -25 71
-73 l6 -42 -55 -11 -56 -12 3 -51 3 -52 61 -32 62 -33 -12 -39 c-6 -22 -14
-43 -18 -47 -7 -6 -72 7 -112 22 -12 5 -21 -5 -36 -37 l-20 -44 50 -45 50 -45
-35 -52 -34 -51 -52 15 -51 15 -29 -28 c-16 -15 -29 -32 -29 -37 0 -6 14 -32
31 -59 30 -47 31 -49 14 -68 -32 -35 -53 -34 -100 5 l-45 36 -39 -31 -39 -32
18 -54 19 -54 -39 -25 c-40 -25 -60 -31 -60 -17 -1 4 -11 20 -24 36 -23 28
-25 28 -74 16 l-50 -12 -7 -58 -7 -58 -45 -6 c-80 -11 -80 -11 -87 44 l-7 51
-66 -3 -65 -3 -22 -53 -21 -54 -49 7 c-28 3 -53 8 -57 10 -4 3 -2 25 3 50 13
59 8 69 -38 84 -22 7 -44 15 -51 17 -6 3 -26 -17 -44 -43 -18 -26 -33 -49 -35
-51 -1 -2 -20 6 -42 17 l-41 21 16 46 16 47 -34 28 c-55 46 -66 46 -114 -1
l-43 -43 -34 23 c-18 13 -35 25 -37 27 -2 1 12 27 31 56 l36 53 -27 32 c-31
38 -34 38 -96 11 l-47 -21 -29 28 c-16 15 -29 32 -29 38 0 6 19 29 42 53 l41
42 -14 38 -15 38 -73 0 c-65 0 -75 3 -82 20 -15 40 -9 51 41 75 53 25 53 25
44 82 -6 36 -9 38 -54 44 -66 9 -72 14 -64 61 6 37 10 41 54 57 41 15 49 22
59 57 7 22 10 43 7 48 -3 4 -27 14 -53 21 -27 7 -51 16 -55 19 -4 3 -2 28 4
55 11 53 2 50 93 29 15 -3 28 6 48 34 l27 38 -28 21 c-15 12 -38 31 -52 42
l-25 21 25 45 c13 25 29 46 34 46 5 0 33 -8 62 -17 l53 -16 20 24 c27 32 26
50 -3 108 l-25 48 40 39 39 38 38 -37 c21 -20 42 -37 47 -37 6 0 23 11 40 24
l29 24 -15 66 c-18 72 -18 71 39 100 l32 17 32 -46 c34 -49 39 -51 87 -34 30
11 31 13 31 70 0 58 0 58 33 64 67 13 89 4 104 -42 12 -36 20 -43 47 -49 68
-12 80 -5 90 59 l9 57 48 0 47 0 7 -50z m-24 -1801 c11 -58 15 -63 64 -95 45
-30 55 -33 79 -24 42 16 52 13 74 -22 l21 -32 -33 -37 c-19 -20 -35 -42 -38
-49 -6 -20 -26 -3 -33 28 -14 66 -99 134 -184 148 -88 14 -186 -42 -234 -135
-24 -47 -40 -56 -46 -26 -2 11 -14 35 -27 54 -22 33 -23 35 -6 63 17 30 24 31
87 13 13 -4 37 5 69 26 39 26 54 45 74 91 l25 58 48 0 48 0 12 -61z m34 -130
c39 -26 82 -83 87 -114 3 -17 -2 -19 -42 -16 -24 2 -57 9 -72 17 -18 9 -29 11
-33 3 -8 -11 -92 -8 -113 5 -8 5 -12 3 -10 -6 2 -9 -15 -14 -64 -16 l-68 -3
11 28 c18 47 56 89 101 112 57 30 152 25 203 -10z m-841 -125 c20 -8 21 -48 1
-64 -13 -11 -20 -9 -40 10 -23 22 -24 22 -49 4 -13 -11 -30 -29 -37 -42 -31
-56 57 -54 121 4 37 34 39 34 49 15 19 -35 12 -46 -44 -69 -59 -23 -143 -29
-176 -12 -55 30 25 126 126 151 17 4 31 7 32 8 1 1 8 -2 17 -5z m1572 -27 c40
-20 86 -75 82 -96 -5 -23 -47 -41 -99 -41 -48 0 -149 35 -149 52 0 8 17 46 25
56 1 1 18 -13 37 -32 36 -36 101 -57 120 -38 16 16 0 49 -34 74 l-31 22 -22
-28 -22 -28 -17 23 c-45 64 17 84 110 36z m-630 2 c160 -15 275 -41 399 -89
192 -74 193 -74 246 -63 l48 9 -21 -35 c-57 -93 -69 -110 -94 -130 -15 -11
-41 -21 -58 -21 -18 0 -112 22 -210 50 -232 64 -351 83 -551 83 -190 1 -302
-18 -524 -88 -152 -48 -203 -54 -239 -30 -18 13 -102 141 -102 156 0 2 22 2
48 1 40 -3 69 5 160 42 154 64 278 93 497 119 69 9 299 6 401 -4z m-986 -48
c14 -27 13 -28 -14 -35 -13 -3 -31 -9 -40 -12 -23 -9 -20 16 6 43 26 28 34 29
48 4z m1607 -7 c35 -35 18 -51 -31 -30 -33 14 -36 17 -24 36 17 26 24 25 55
-6z m-926 -174 c53 -24 126 -26 177 -4 27 11 53 13 99 8 74 -8 86 -24 47 -65
l-27 -28 -29 24 c-34 29 -34 29 -75 14 -26 -9 -32 -17 -37 -54 -6 -40 -9 -43
-41 -47 -37 -4 -36 -5 -49 55 -5 20 -17 33 -43 43 -35 15 -36 15 -59 -13 -13
-15 -23 -31 -24 -35 0 -14 -25 -8 -49 13 -24 19 -24 21 -8 55 14 29 42 51 68
53 4 1 26 -8 50 -19z m159 10 c-18 -12 -107 -12 -135 0 -13 6 8 9 65 9 58 1
80 -2 70 -9z"/>
<path d="M815 2346 c-131 -30 -239 -86 -353 -183 -198 -168 -294 -463 -236
-726 35 -162 147 -335 280 -435 128 -96 259 -147 411 -161 392 -34 741 209
835 582 29 117 22 298 -16 412 -77 227 -257 406 -493 488 -79 27 -102 31 -228
33 -94 3 -160 -1 -200 -10z m310 -11 c170 -30 312 -110 441 -248 130 -139 185
-284 186 -487 1 -135 -22 -233 -78 -341 -93 -177 -284 -328 -481 -380 -111
-30 -298 -30 -406 -1 -231 63 -437 250 -517 471 -145 396 79 839 485 960 137
41 240 48 370 26z"/>
<path d="M972 2250 c-2 -23 2 -40 8 -40 5 0 10 18 10 40 0 22 -4 40 -8 40 -4
0 -9 -18 -10 -40z"/>
<path d="M1001 2243 l2 -48 6 38 6 38 19 -35 c11 -20 22 -36 26 -36 3 0 7 21
7 48 1 43 0 44 -6 12 l-7 -35 -20 32 c-10 18 -22 33 -26 33 -5 0 -7 -21 -7
-47z"/>
<path d="M883 2266 c4 -10 7 -29 7 -42 0 -19 5 -24 23 -23 16 1 18 2 5 6 -12
3 -18 14 -18 33 0 16 -5 32 -12 36 -8 5 -9 2 -5 -10z"/>
<path d="M1090 2264 c0 -9 8 -23 18 -30 14 -10 15 -15 4 -26 -11 -11 -14 -10
-22 2 -6 9 -10 10 -10 3 0 -21 21 -26 38 -9 14 14 14 17 -1 34 -21 23 -22 36
-2 28 8 -3 15 -1 15 4 0 6 -9 10 -20 10 -12 0 -20 -7 -20 -16z"/>
<path d="M827 2264 c-4 -4 -7 -22 -7 -41 0 -44 -15 -42 -29 5 -10 35 -10 35
-6 4 l5 -33 -29 20 c-16 12 -31 21 -34 21 -2 0 1 -18 6 -40 6 -22 15 -40 19
-40 4 0 3 12 -2 26 -14 37 -13 38 23 10 l34 -26 22 26 c18 21 25 23 37 14 22
-19 17 2 -9 33 -12 16 -26 25 -30 21z m23 -30 c0 -8 -4 -14 -10 -14 -5 0 -10
9 -10 21 0 11 5 17 10 14 6 -3 10 -13 10 -21z"/>
<path d="M1154 2253 c0 -10 -3 -31 -7 -46 -5 -19 -4 -26 3 -22 5 3 10 15 10
26 0 11 5 29 10 40 8 14 7 19 -3 19 -7 0 -13 -8 -13 -17z"/>
<path d="M1197 2253 c-2 -4 -7 -24 -11 -43 l-6 -35 15 39 c13 35 15 61 2 39z"/>
<path d="M1224 2233 c-1 -10 -4 -31 -8 -48 -6 -29 -6 -29 7 3 7 18 18 37 26
41 10 6 9 10 -4 15 -22 8 -21 9 -21 -11z"/>
<path d="M1262 2205 c-29 -62 4 -98 38 -42 11 17 20 37 19 42 0 6 -8 -5 -16
-22 -17 -34 -43 -45 -43 -17 0 8 5 24 11 36 6 11 9 22 6 24 -2 2 -9 -7 -15
-21z"/>
<path d="M656 2207 c-12 -9 -17 -23 -14 -42 3 -27 7 -30 37 -30 44 0 61 35 31
65 -23 23 -30 24 -54 7z m42 -6 c8 -4 12 -19 10 -32 -4 -34 -52 -34 -56 0 -3
20 11 41 28 41 3 0 11 -4 18 -9z"/>
<path d="M1335 2190 c3 -5 -1 -23 -10 -39 -23 -45 -17 -51 9 -9 12 21 27 35
32 30 4 -4 2 1 -5 11 -14 18 -37 24 -26 7z"/>
<path d="M600 2176 c0 -10 43 -77 47 -73 2 3 -6 21 -18 41 -19 33 -29 43 -29
32z"/>
<path d="M571 2157 c-7 -10 -9 -17 -3 -17 5 0 19 -15 31 -32 11 -18 21 -28 21
-23 0 6 -6 19 -14 30 -7 11 -15 29 -17 39 -4 18 -5 18 -18 3z"/>
<path d="M1362 2134 c-27 -41 -27 -41 1 -55 22 -12 22 -12 4 9 -18 20 -11 35
15 29 7 -2 10 -2 6 0 -5 3 -8 11 -8 20 0 10 6 12 20 8 25 -8 26 1 2 14 -14 7
-22 3 -40 -25z"/>
<path d="M910 2138 c-208 -21 -385 -170 -450 -377 -27 -86 -27 -225 0 -314 25
-80 84 -170 154 -234 266 -244 699 -163 856 160 55 115 70 213 48 325 -58 291
-306 471 -608 440z m245 -38 c170 -59 315 -224 346 -395 15 -81 6 -196 -23
-275 -20 -57 -27 -66 -58 -77 -43 -15 -150 -16 -184 -3 l-26 10 20 32 c25 41
25 43 0 68 -23 23 -67 26 -114 6 l-33 -14 5 50 c4 37 -3 75 -29 158 -32 105
-49 129 -49 70 0 -15 -11 -52 -25 -82 -30 -64 -34 -151 -9 -187 22 -30 4 -44
-46 -35 -34 6 -53 15 -119 56 -27 17 -57 22 -167 29 -76 4 -145 13 -161 21
-28 13 -28 15 -26 96 2 135 43 232 141 334 83 87 163 133 277 158 64 14 212 4
280 -20z m-88 -532 c8 -69 -10 -59 -24 13 -18 97 -30 95 -40 -6 -5 -60 -8 -66
-20 -50 -19 27 -16 50 14 118 l27 60 19 -44 c11 -24 22 -65 24 -91z m-28 -35
c1 -13 -4 -23 -9 -23 -16 0 -23 27 -15 58 7 25 8 25 15 7 5 -11 9 -30 9 -42z
m-517 -28 c18 -3 84 -9 146 -14 102 -8 117 -12 163 -41 35 -23 67 -35 107 -39
55 -6 57 -7 57 -36 l0 -30 -60 1 c-44 0 -78 8 -120 28 -37 17 -91 31 -141 37
-44 5 -104 13 -133 19 -30 5 -55 10 -56 10 -4 0 -25 61 -25 73 0 5 6 7 14 4 8
-3 30 -8 48 -12z m543 -15 c-3 -5 -12 -10 -18 -10 -7 0 -6 4 3 10 19 12 23 12
15 0z m154 -45 c12 -12 12 -18 -3 -40 -10 -14 -16 -36 -14 -48 3 -19 12 -23
62 -30 34 -5 83 -4 113 1 l53 9 -16 -26 c-9 -14 -28 -39 -43 -54 -25 -28 -29
-29 -96 -24 -43 2 -82 11 -102 23 l-31 18 -108 -54 c-90 -46 -117 -55 -173
-58 -36 -2 -73 -10 -81 -18 -13 -11 -22 -10 -54 10 -51 30 -38 37 83 43 80 4
104 9 141 30 25 14 65 36 90 48 26 13 52 31 60 40 12 15 12 19 -5 31 -10 8
-25 14 -32 14 -8 0 -13 12 -13 33 0 31 3 34 58 54 58 22 86 21 111 -2z m-182
9 c-3 -3 -12 -4 -19 -1 -8 3 -5 6 6 6 11 1 17 -2 13 -5z m-7 -91 c0 -42 -2
-74 -4 -72 -9 11 -15 149 -6 149 6 0 10 -32 10 -77z m-400 37 c111 -12 118
-14 190 -48 40 -19 72 -26 117 -26 57 -1 63 -3 63 -22 0 -50 -77 -85 -196 -89
-51 -2 -102 -9 -114 -15 -16 -9 -26 -7 -49 9 -45 32 -120 132 -141 187 -10 24
-9 26 13 20 12 -3 65 -10 117 -16z m455 -69 c3 -6 -4 -15 -15 -21 -17 -9 -20
-8 -20 10 0 20 24 28 35 11z m89 -96 c13 -10 43 -15 83 -15 35 0 63 -3 63 -6
0 -20 -122 -85 -204 -109 -91 -27 -326 -8 -326 25 0 6 27 10 59 10 59 0 116
21 241 90 42 23 59 24 84 5z"/>
<path d="M630 1821 c0 -122 3 -163 14 -173 7 -8 45 -25 84 -38 65 -22 76 -23
129 -12 32 6 69 20 83 31 25 18 25 20 28 185 2 111 -1 166 -8 166 -6 0 -47
-18 -91 -40 l-81 -41 -73 41 c-41 22 -77 40 -80 40 -3 0 -5 -72 -5 -159z m330
-3 c0 -84 -4 -158 -8 -164 -8 -12 -46 -34 -59 -34 -4 0 7 9 25 20 l32 20 0
145 c0 149 -2 155 -41 135 -10 -6 -19 -8 -19 -6 0 6 51 35 63 36 4 0 7 -69 7
-152z m-308 60 c-5 -150 -8 -165 -10 -40 -1 67 1 122 6 122 4 0 6 -37 4 -82z
m288 14 l0 -48 -60 -29 c-33 -16 -60 -32 -60 -37 0 -5 23 3 51 17 28 15 55 25
61 23 5 -2 -18 -17 -51 -33 -34 -16 -61 -32 -61 -37 0 -5 27 5 60 22 39 20 60
26 60 18 -1 -7 -28 -25 -62 -41 -33 -15 -59 -30 -56 -33 4 -3 29 6 57 20 56
29 61 30 61 16 0 -5 -27 -24 -61 -41 -34 -16 -59 -33 -56 -35 3 -3 28 6 56 20
58 30 61 30 61 14 -1 -7 -28 -25 -62 -41 -33 -15 -59 -30 -56 -33 4 -3 29 6
57 20 58 30 62 31 55 12 -3 -7 -23 -19 -46 -27 -34 -11 -37 -14 -22 -21 15 -6
13 -7 -6 -3 -14 2 -31 5 -37 5 -10 0 -13 25 -13 93 l1 92 61 28 c33 15 59 30
56 33 -4 3 -29 -6 -57 -20 -58 -30 -61 -30 -61 -13 1 6 28 24 62 40 33 15 59
30 56 33 -4 3 -29 -6 -57 -20 -55 -28 -65 -31 -56 -16 5 8 109 67 123 70 1 0
2 -22 2 -48z m-220 24 c15 -1 24 -7 22 -15 -2 -9 3 -11 13 -7 9 3 13 2 10 -3
-3 -6 3 -14 12 -20 36 -21 1 -10 -47 14 -28 14 -50 21 -50 16 0 -5 25 -19 55
-32 30 -12 55 -29 55 -36 0 -9 -16 -6 -57 12 -75 34 -78 26 -4 -10 66 -31 71
-42 71 -159 l0 -58 -27 7 c-16 3 -47 15 -70 25 l-43 19 0 132 c0 121 1 131 18
124 9 -4 28 -8 42 -9z m95 -26 c-3 -5 -14 -10 -23 -9 -14 0 -13 2 3 9 27 11
27 11 20 0z m13 -287 c-10 -2 -26 -2 -35 0 -10 3 -2 5 17 5 19 0 27 -2 18 -5z"/>
<path d="M670 1832 c0 -5 22 -19 50 -32 62 -29 59 -38 -4 -11 -61 27 -59 18 4
-14 59 -30 55 -29 57 -7 1 13 -15 27 -53 45 -30 15 -54 23 -54 19z"/>
<path d="M671 1766 c14 -13 109 -55 109 -48 0 9 -84 52 -102 52 -6 0 -9 -2 -7
-4z"/>
<path d="M671 1726 c14 -13 109 -55 109 -48 0 9 -84 52 -102 52 -6 0 -9 -2 -7
-4z"/>
<path d="M724 1659 c32 -17 60 -28 63 -25 6 6 -92 56 -109 56 -7 -1 13 -15 46
-31z"/>
<path d="M1216 1938 c-11 -16 -26 -22 -58 -22 -37 -1 -43 -4 -46 -24 -2 -13 3
-34 12 -47 14 -21 14 -26 -6 -62 -28 -52 -20 -73 29 -73 34 0 40 -4 50 -30 16
-42 56 -42 78 -1 12 24 23 30 52 33 31 2 39 7 41 26 2 13 -4 35 -13 48 -14 22
-15 28 -2 42 37 44 26 82 -23 82 -19 0 -33 8 -44 25 -20 31 -50 32 -70 3z m54
-3 c17 -20 5 -45 -20 -45 -11 0 -23 7 -26 15 -6 15 11 45 26 45 4 0 13 -7 20
-15z m-90 -35 c11 -7 12 -15 5 -36 -13 -37 -29 -40 -49 -9 -28 43 1 73 44 45z
m169 -9 c12 -8 13 -14 3 -35 -15 -34 -38 -33 -46 1 -9 35 14 52 43 34z m-124
-11 c3 -5 1 -10 -4 -10 -6 0 -11 5 -11 10 0 6 2 10 4 10 3 0 8 -4 11 -10z m65
-10 c0 -5 -2 -10 -4 -10 -3 0 -8 5 -11 10 -3 6 -1 10 4 10 6 0 11 -4 11 -10z
m-2 -52 c2 -14 -5 -31 -18 -43 -29 -27 -70 -7 -70 34 0 41 35 67 65 47 11 -7
21 -24 23 -38z m-113 -59 c0 -31 -3 -34 -29 -34 -37 0 -42 15 -15 49 27 34 44
29 44 -15z m183 -18 c-2 -10 -13 -16 -28 -16 -29 0 -40 36 -19 62 12 13 15 13
31 -8 11 -12 17 -29 16 -38z m-138 9 c0 -5 -4 -10 -10 -10 -5 0 -10 5 -10 10
0 6 5 10 10 10 6 0 10 -4 10 -10z m60 0 c0 -5 -5 -10 -11 -10 -5 0 -7 5 -4 10
3 6 8 10 11 10 2 0 4 -4 4 -10z m-26 -16 c19 -7 20 -33 2 -56 -18 -25 -31 -22
-45 9 -11 23 -10 29 5 40 21 15 18 15 38 7z"/>
<path d="M524 2098 c3 -12 9 -34 12 -48 l7 -25 -32 29 c-17 17 -31 24 -31 18
0 -7 9 -17 20 -24 30 -19 24 -27 -15 -18 -57 13 -54 -5 10 -50 15 -11 13 -7
-5 14 l-25 29 36 -7 c33 -6 36 -4 50 26 9 21 21 32 32 32 26 -3 21 4 -24 27
l-42 21 7 -24z m34 -16 c6 -18 -15 -14 -22 4 -4 10 -1 14 6 12 6 -2 14 -10 16
-16z"/>
<path d="M1448 2079 c-25 -14 -24 -65 2 -79 14 -8 26 -8 40 0 27 14 27 65 1
80 -23 12 -22 12 -43 -1z m40 -8 c8 -4 12 -19 10 -32 -2 -18 -9 -24 -28 -24
-28 0 -39 27 -20 50 14 17 20 18 38 6z"/>
<path d="M1508 1995 c-30 -26 -39 -47 -11 -24 13 11 17 11 20 2 3 -7 9 -13 15
-13 6 0 5 6 -2 15 -18 21 -4 32 21 17 19 -12 19 -11 9 8 -14 25 -19 25 -52 -5z"/>
<path d="M427 1953 c23 -21 29 -33 23 -43 -8 -12 -14 -11 -40 9 -17 12 -34 21
-36 18 -3 -3 11 -15 31 -27 33 -20 38 -21 52 -7 18 18 13 29 -30 57 l-32 22
32 -29z"/>
<path d="M1595 1930 c3 -5 -8 -16 -25 -25 -16 -8 -30 -18 -30 -21 0 -2 14 3
30 11 17 9 35 13 41 9 7 -4 7 1 0 15 -7 11 -14 21 -17 21 -3 0 -3 -4 1 -10z"/>
<path d="M352 1888 c-20 -20 -14 -33 24 -52 48 -22 57 -13 10 11 -27 14 -33
21 -25 33 8 13 11 13 23 -2 7 -10 22 -18 32 -17 14 0 15 2 4 6 -8 3 -19 12
-23 19 -10 17 -29 18 -45 2z"/>
<path d="M1588 1869 c-30 -15 -35 -23 -30 -41 4 -15 7 -18 10 -8 11 43 12 44
27 24 13 -18 14 -18 8 4 -4 16 -1 22 11 22 9 0 16 -5 16 -12 0 -6 3 -9 6 -5 3
3 2 12 -3 20 -7 13 -13 13 -45 -4z"/>
<path d="M343 1823 c28 -7 16 -39 -13 -35 -33 4 -15 -12 30 -26 30 -10 33 -10
17 2 -24 18 -12 48 17 41 11 -2 8 2 -9 10 -16 8 -37 14 -45 13 -10 0 -9 -2 3
-5z"/>
<path d="M1592 1798 c-17 -17 -15 -43 6 -59 15 -13 16 -12 4 3 -21 27 -6 60
26 56 22 -2 27 -8 27 -30 -1 -14 3 -24 7 -22 12 8 10 38 -4 52 -7 7 -21 12
-33 12 -12 0 -26 -5 -33 -12z"/>
<path d="M301 1733 c-1 -17 7 -24 36 -32 39 -11 53 -3 52 29 0 8 -4 5 -10 -8
-10 -25 -29 -21 -29 6 0 13 -2 13 -14 -4 -14 -18 -15 -18 -25 6 -9 24 -10 24
-10 3z"/>
<path d="M1625 1711 c-28 -6 -28 -7 -7 -13 26 -7 29 -35 5 -41 -12 -3 -9 -5 7
-5 14 0 34 3 45 8 19 8 19 9 -1 9 -31 1 -39 30 -11 41 25 10 6 11 -38 1z"/>
<path d="M320 1671 c35 -6 35 -7 12 -20 -13 -7 -22 -15 -19 -17 3 -3 19 4 36
14 26 16 29 21 16 26 -9 3 -31 5 -48 5 l-32 -2 35 -6z"/>
<path d="M290 1619 c0 -5 19 -9 42 -9 49 0 47 5 -4 13 -21 3 -38 2 -38 -4z"/>
<path d="M1633 1621 l39 -6 -31 -18 c-43 -25 -39 -37 12 -35 40 1 40 1 7 5
l-35 5 35 29 35 28 -50 -1 c-49 -1 -49 -1 -12 -7z"/>
<path d="M370 1545 c0 -10 -11 -15 -35 -15 -19 0 -35 -3 -35 -8 0 -4 18 -6 40
-4 31 3 40 8 40 23 0 10 -2 19 -5 19 -3 0 -5 -7 -5 -15z"/>
<path d="M1616 1537 c-12 -9 -17 -23 -14 -42 2 -25 8 -31 33 -33 19 -3 33 2
42 14 17 24 17 30 -7 54 -24 24 -30 24 -54 7z m49 -13 c18 -18 16 -33 -7 -47
-35 -22 -66 21 -36 51 16 16 23 15 43 -4z"/>
<path d="M333 1489 c-40 -25 -36 -34 17 -43 52 -8 57 -40 8 -50 -17 -3 -29 -9
-25 -12 3 -3 21 -1 40 5 28 9 34 16 30 32 -3 11 -14 24 -24 30 -21 11 -25 45
-6 52 6 3 8 6 2 6 -5 0 -25 -9 -42 -20z m17 -19 c0 -5 -7 -10 -16 -10 -8 0
-12 5 -9 10 3 6 10 10 16 10 5 0 9 -4 9 -10z"/>
<path d="M1581 1428 c1 -18 2 -19 6 -5 3 13 11 16 26 12 48 -14 60 -14 32 0
-45 21 -65 19 -64 -7z"/>
<path d="M1573 1388 c-20 -26 -24 -42 -4 -18 16 20 23 23 38 14 24 -15 29 -52
7 -61 -9 -3 -26 -1 -36 6 -16 10 -19 10 -16 -1 3 -7 -7 -18 -24 -25 -27 -12
-39 -49 -21 -66 8 -8 33 12 33 26 0 6 -7 2 -15 -9 -14 -19 -14 -19 -15 2 0 27
22 46 43 38 27 -10 29 -36 5 -62 -22 -24 -22 -24 -2 -14 30 16 37 41 19 68
-15 23 -14 24 8 24 29 0 47 18 47 47 0 34 -48 56 -67 31z"/>
<path d="M355 1365 c-40 -18 -16 -19 26 0 19 8 27 14 19 14 -8 0 -28 -6 -45
-14z"/>
<path d="M385 1336 c-11 -8 -25 -11 -33 -8 -12 4 -12 1 -1 -19 10 -18 14 -20
16 -8 2 9 18 23 36 32 18 9 25 16 16 16 -8 1 -24 -5 -34 -13z"/>
<path d="M402 1304 c-31 -21 -29 -61 3 -76 51 -23 87 47 40 78 -18 12 -24 11
-43 -2z m52 -19 c13 -34 -24 -66 -50 -44 -15 12 -19 41 -7 52 12 13 51 7 57
-8z"/>
<path d="M455 1216 c-35 -28 -30 -41 10 -26 36 14 40 8 20 -29 -8 -17 -12 -31
-7 -31 14 0 64 42 58 48 -3 3 -16 -3 -27 -14 l-22 -19 18 34 17 34 -33 -7
c-32 -6 -32 -6 -14 14 24 27 17 25 -20 -4z"/>
<path d="M1476 1212 c6 -4 19 -20 28 -37 12 -21 15 -24 11 -7 -5 18 -2 22 17
22 17 1 12 5 -17 15 -45 16 -55 18 -39 7z"/>
<path d="M1437 1143 c-13 -12 -7 -23 13 -23 11 0 20 7 20 15 0 15 -21 21 -33
8z"/>
<path d="M550 1126 c0 -8 4 -17 9 -20 11 -7 33 18 24 27 -12 12 -33 7 -33 -7z"/>
<path d="M1396 1087 c16 -19 30 -33 32 -31 7 5 -30 52 -45 58 -8 4 -2 -9 13
-27z"/>
<path d="M627 1081 c-38 -25 -46 -35 -20 -27 17 5 24 1 35 -20 7 -15 19 -30
27 -32 9 -3 11 0 7 7 -4 7 0 23 9 37 9 14 14 28 12 31 -3 3 -13 -9 -22 -27
-19 -38 -30 -35 -15 4 19 51 13 56 -33 27z m28 -10 c-3 -6 -11 -11 -17 -11 -6
0 -6 6 2 15 14 17 26 13 15 -4z"/>
<path d="M1341 1078 c1 -13 5 -34 9 -48 8 -24 8 -24 9 -2 1 21 10 27 41 22 17
-2 16 -1 -27 29 l-33 22 1 -23z m24 -7 c3 -5 1 -12 -5 -16 -5 -3 -10 1 -10 9
0 18 6 21 15 7z"/>
<path d="M1306 1056 c4 -10 -2 -12 -20 -9 -35 7 -59 -14 -51 -45 l6 -24 -31
22 c-16 12 -30 16 -30 10 0 -6 -4 -9 -9 -6 -5 3 -4 -13 2 -37 7 -27 13 -35 15
-23 3 15 6 16 13 5 6 -9 7 -4 3 16 l-7 29 26 -17 c35 -22 40 -22 32 6 -7 20
-6 21 7 4 16 -21 44 -14 53 14 4 11 11 16 17 13 5 -3 2 8 -6 25 -17 31 -30 43
-20 17z m6 -35 c-15 -43 -37 -52 -47 -20 -6 17 -9 19 -16 8 -10 -16 -12 -8 -3
15 9 23 74 19 66 -3z m-119 -41 c-3 -12 -8 -19 -11 -16 -5 6 5 36 12 36 2 0 2
-9 -1 -20z"/>
<path d="M706 1019 c-15 -26 -16 -33 -5 -40 8 -5 26 -6 42 -3 22 5 29 1 35
-17 8 -20 10 -17 16 20 4 24 4 46 1 49 -3 3 -18 -7 -33 -21 -43 -41 -67 -33
-41 15 17 33 4 30 -15 -3z m84 -17 c0 -13 -12 -22 -22 -16 -10 6 -1 24 13 24
5 0 9 -4 9 -8z"/>
<path d="M816 1003 c-19 -72 -19 -69 -4 -49 16 21 43 13 34 -10 -6 -16 10 -29
19 -14 10 16 43 11 48 -7 3 -12 5 -9 5 7 0 14 -3 36 -7 50 l-7 25 -23 -35 -22
-35 6 35 c4 27 3 31 -5 18 -14 -23 -43 -12 -35 13 4 11 4 19 1 19 -2 0 -7 -8
-10 -17z m88 -38 c3 -8 1 -15 -4 -15 -6 0 -10 7 -10 15 0 8 2 15 4 15 2 0 6
-7 10 -15z"/>
<path d="M1141 989 c0 -19 6 -44 15 -55 8 -10 12 -12 8 -4 -5 8 -11 33 -15 55
l-6 40 -2 -36z"/>
<path d="M937 983 c-4 -3 -7 -21 -7 -40 0 -31 2 -33 30 -31 17 1 30 6 30 10 0
4 9 8 20 8 11 0 20 -5 20 -12 0 -6 3 -9 6 -5 3 3 3 15 -1 28 -6 17 -9 19 -16
8 -8 -12 -10 -12 -18 0 -7 11 -10 11 -15 0 -5 -11 -7 -11 -12 -1 -3 6 -12 12
-20 12 -8 0 -14 5 -14 11 0 6 9 8 21 4 15 -5 19 -4 15 4 -8 12 -29 15 -39 4z
m25 -48 c0 -5 -5 -11 -11 -13 -6 -2 -11 4 -11 13 0 9 5 15 11 13 6 -2 11 -8
11 -13z"/>
<path d="M1000 980 c0 -5 5 -10 10 -10 6 0 10 5 10 10 0 6 -4 10 -10 10 -5 0
-10 -4 -10 -10z"/>
<path d="M1041 968 c1 -18 2 -19 6 -5 7 27 47 18 51 -11 4 -26 -25 -42 -39
-21 -7 11 -9 11 -9 -3 0 -22 33 -24 50 -3 7 8 10 25 6 40 -5 20 -13 25 -36 25
-25 0 -30 -4 -29 -22z"/>
<path d="M810 370 c0 -21 -5 -30 -17 -32 -17 -1 -33 -4 -43 -7 -21 -8 -113 -2
-147 9 -22 7 -53 10 -68 6 -23 -6 -26 -11 -21 -31 7 -29 6 -29 -95 -26 -49 2
-68 -1 -78 -13 -10 -12 -11 -19 -2 -29 6 -8 8 -17 4 -20 -3 -4 0 -7 8 -7 8 0
25 -18 39 -40 14 -22 28 -40 32 -40 13 0 9 13 -13 49 -20 33 -20 36 -4 48 10
7 23 9 28 6 8 -5 7 -8 -1 -11 -21 -7 -13 -21 21 -42 40 -25 59 -25 30 -1 -20
17 -21 20 -6 25 11 5 23 -1 34 -16 27 -35 33 -15 10 30 -18 35 -18 41 -5 46
11 4 21 -8 36 -42 14 -31 23 -41 25 -30 2 9 -1 26 -6 37 -20 37 -13 49 32 56
23 3 51 8 62 11 17 3 17 2 -2 -7 -13 -7 -23 -18 -23 -26 0 -7 -9 -13 -20 -13
-24 0 -28 -35 -4 -44 25 -10 92 -7 99 4 4 6 11 8 16 5 15 -10 10 8 -10 35 -14
18 -17 29 -10 42 9 17 10 17 27 0 10 -10 21 -26 25 -35 7 -19 23 -22 32 -7 11
18 35 11 35 -10 0 -11 5 -20 11 -20 7 0 9 16 4 50 l-7 50 44 -1 c34 -1 38 -2
18 -8 -15 -4 -26 -15 -28 -29 -3 -18 3 -23 27 -28 17 -4 31 -10 31 -15 0 -5 5
-9 10 -9 6 0 10 20 10 45 0 33 4 45 15 45 11 0 15 -12 15 -45 0 -25 5 -45 10
-45 6 0 10 20 10 45 l0 45 43 -1 42 -2 -35 -6 c-44 -8 -49 -30 -15 -67 20 -22
25 -24 20 -9 -18 51 -18 55 4 55 17 0 21 -6 21 -30 0 -16 5 -30 10 -30 6 0 10
20 10 44 0 34 4 45 18 48 13 3 11 7 -13 21 -96 53 -128 58 -133 19 -3 -20 -9
-22 -73 -22 -56 0 -69 3 -69 16 0 11 6 14 22 8 20 -6 21 -5 9 10 -7 9 -22 16
-32 16 -14 0 -19 -7 -19 -30z m245 -11 c5 -5 -4 -9 -22 -9 -32 0 -48 11 -36
24 8 7 44 -2 58 -15z m-450 -39 c3 -5 -3 -10 -14 -10 -10 0 -26 -3 -35 -6 -11
-4 -16 -1 -16 10 0 18 54 23 65 6z m215 -15 c0 -8 -7 -15 -15 -15 -8 0 -15 7
-15 15 0 8 7 15 15 15 8 0 15 -7 15 -15z m105 -15 c-3 -5 -13 -10 -21 -10 -8
0 -14 5 -14 10 0 6 9 10 21 10 11 0 17 -4 14 -10z m-500 -19 c-15 -15 -65 -25
-65 -13 0 13 17 20 50 21 15 1 20 -3 15 -8z m260 -1 c-3 -5 -10 -10 -16 -10
-5 0 -9 5 -9 10 0 6 7 10 16 10 8 0 12 -4 9 -10z m-195 -25 c0 -8 -7 -15 -15
-15 -8 0 -15 7 -15 15 0 8 7 15 15 15 8 0 15 -7 15 -15z m205 -15 c-3 -5 -11
-10 -16 -10 -6 0 -7 5 -4 10 3 6 11 10 16 10 6 0 7 -4 4 -10z"/>
<path d="M1452 348 c-7 -7 -12 -18 -12 -26 0 -11 -9 -13 -37 -7 -62 12 -156
25 -181 25 -35 0 -15 -20 21 -21 l32 -1 -30 -7 c-37 -8 -43 -44 -7 -49 14 -2
22 -10 22 -23 0 -29 18 -23 22 8 2 14 9 28 17 31 9 3 11 -2 6 -17 -5 -15 -2
-21 9 -21 26 0 20 49 -6 60 -20 8 -19 9 12 9 19 0 42 -4 50 -9 13 -9 12 -12
-4 -25 -16 -12 -17 -17 -6 -30 8 -10 17 -12 23 -6 15 15 38 1 32 -19 -3 -10
-1 -21 4 -25 6 -3 15 14 22 40 13 50 12 50 75 34 46 -12 63 -30 20 -22 -21 4
-24 2 -19 -18 4 -15 3 -20 -5 -15 -7 4 -12 16 -12 27 0 10 -7 19 -15 19 -21 0
-19 -23 5 -51 l20 -24 21 25 22 25 -8 -25 c-4 -14 -10 -31 -12 -37 -3 -7 -1
-13 4 -13 6 0 18 18 28 40 17 39 37 51 50 30 3 -6 -3 -23 -14 -39 -12 -16 -21
-34 -21 -40 0 -22 17 -10 39 29 14 26 27 37 36 33 8 -3 15 0 15 6 0 15 -42 35
-128 61 -74 22 -88 32 -77 50 5 8 11 7 21 -1 11 -9 14 -8 14 4 0 8 -7 18 -16
21 -20 8 -18 8 -32 -6z m-192 -62 c0 -11 -19 -15 -25 -6 -3 5 1 10 9 10 9 0
16 -2 16 -4z m170 -11 c0 -8 -7 -15 -15 -15 -8 0 -15 7 -15 15 0 8 7 15 15 15
8 0 15 -7 15 -15z"/>
</g>
</svg>
